PathFileType	4	(X/Y/Z)	 0.11m3min.trc
DataRate	CameraRate	NumFrames	NumMarkers	Units	OrigDataRate	OrigDataStartFrame	OrigNumFrames
200	200	11	34	m	200	1	1000
Frame#	Time	LSH			RSH			MAN			RASI			LASI			HIPR			HIPL			RPSI			LPSI			COX			RTHI1			RTHI2			RTHI3			RTHI4			RSHA1			RSHA2			RSHA3			RSHA4			RHEEL			RMET5			RMET1			RTOE			LTHI1			LTHI2			LTHI3			LTHI4			LSHA1			LSHA2			LSHA3			LSHA4			LHEEL			LMET5			LMET1			LTOE			
		X1	Y1	Z1	X2	Y2	Z2	X3	Y3	Z3	X4	Y4	Z4	X5	Y5	Z5	X6	Y6	Z6	X7	Y7	Z7	X8	Y8	Z8	X9	Y9	Z9	X10	Y10	Z10	X11	Y11	Z11	X12	Y12	Z12	X13	Y13	Z13	X14	Y14	Z14	X15	Y15	Z15	X16	Y16	Z16	X17	Y17	Z17	X18	Y18	Z18	X19	Y19	Z19	X20	Y20	Z20	X21	Y21	Z21	X22	Y22	Z22	X23	Y23	Z23	X24	Y24	Z24	X25	Y25	Z25	X26	Y26	Z26	X27	Y27	Z27	X28	Y28	Z28	X29	Y29	Z29	X30	Y30	Z30	X31	Y31	Z31	X32	Y32	Z32	X33	Y33	Z33	X34	Y34	Z34	
1	0.0050	-0.213593	1.457725	-0.739973	-0.243691	1.438617	-0.401442	-0.167428	1.418007	-0.566073	-0.149775	1.015672	-0.456492	-0.132722	1.016480	-0.683026	-0.202997	1.065350	-0.434743	-0.184490	1.063264	-0.712271	-0.301692	1.047716	-0.521557	-0.293012	1.049888	-0.635012	-0.304996	1.051706	-0.577671	-0.234297	0.800697	-0.409378	-0.207817	0.747153	-0.407408	-0.148537	0.771968	-0.400711	-0.167633	0.830566	-0.401401	-0.251405	0.395749	-0.411083	-0.267647	0.356794	-0.419314	-0.209100	0.340167	-0.421630	-0.197079	0.378691	-0.417433	-0.353630	0.182310	-0.470364	-0.252631	0.052665	-0.422931	-0.233017	0.047523	-0.485598	-0.215736	0.030597	-0.478362	-0.197207	0.821480	-0.748905	-0.175445	0.764030	-0.743538	-0.114869	0.782388	-0.728492	-0.129165	0.840157	-0.732659	-0.244288	0.399930	-0.737188	-0.263492	0.364463	-0.734805	-0.205909	0.341758	-0.723895	-0.193538	0.384032	-0.728214	-0.367546	0.171666	-0.688055	-0.259062	0.058908	-0.732487	-0.234881	0.046330	-0.667029	-0.217978	0.031665	-0.673097	
2	0.0100	-0.213608	1.451682	-0.740396	-0.244512	1.432514	-0.401755	-0.168082	1.411834	-0.566274	-0.150780	1.010057	-0.456737	-0.133298	1.010748	-0.683258	-0.204224	1.059559	-0.435075	-0.184946	1.057456	-0.712706	-0.302613	1.041933	-0.522188	-0.293697	1.044165	-0.635661	-0.305751	1.045965	-0.578228	-0.234734	0.794579	-0.410295	-0.207925	0.741225	-0.408033	-0.148788	0.766369	-0.401566	-0.168179	0.824835	-0.402279	-0.251578	0.391261	-0.411446	-0.268343	0.352467	-0.419850	-0.209944	0.335167	-0.422326	-0.197532	0.373482	-0.418049	-0.356834	0.177935	-0.471144	-0.255338	0.048898	-0.422918	-0.235335	0.045050	-0.486266	-0.217200	0.029709	-0.478979	-0.197586	0.815307	-0.749297	-0.175663	0.757941	-0.743742	-0.115178	0.776482	-0.728527	-0.129641	0.834283	-0.732948	-0.244564	0.394991	-0.737666	-0.264131	0.359680	-0.735417	-0.206779	0.336463	-0.724357	-0.194011	0.378611	-0.728607	-0.370948	0.166996	-0.689608	-0.260745	0.055677	-0.733854	-0.236980	0.044306	-0.666667	-0.219405	0.030516	-0.672272	
3	0.0150	-0.213636	1.445420	-0.740804	-0.245315	1.426217	-0.402051	-0.168590	1.405463	-0.566506	-0.151821	1.004206	-0.457066	-0.133915	1.004803	-0.683491	-0.205486	1.053518	-0.435359	-0.185417	1.051396	-0.713160	-0.303598	1.035925	-0.522826	-0.294436	1.038177	-0.636337	-0.306317	1.039910	-0.578944	-0.235191	0.788274	-0.411235	-0.208082	0.735077	-0.408843	-0.149105	0.760530	-0.402369	-0.168765	0.818853	-0.403115	-0.251892	0.386404	-0.411850	-0.269108	0.347815	-0.420350	-0.210910	0.329934	-0.423024	-0.198089	0.368026	-0.418749	-0.360327	0.173199	-0.471666	-0.257197	0.045822	-0.422786	-0.237027	0.043004	-0.486774	-0.218229	0.029162	-0.479432	-0.198029	0.808900	-0.749662	-0.175974	0.751593	-0.743945	-0.115563	0.770302	-0.728611	-0.130164	0.828090	-0.733206	-0.244972	0.389937	-0.738112	-0.264919	0.354833	-0.736015	-0.207819	0.331012	-0.724921	-0.194620	0.373015	-0.729083	-0.374521	0.162151	-0.691667	-0.261689	0.052713	-0.734522	-0.238714	0.042672	-0.666560	-0.220479	0.029774	-0.671707	
4	0.0200	-0.213668	1.439103	-0.741210	-0.246109	1.419871	-0.402348	-0.169087	1.399035	-0.566745	-0.152874	0.998288	-0.457384	-0.134547	0.998798	-0.683730	-0.206736	1.047418	-0.435649	-0.185897	1.045273	-0.713618	-0.304609	1.029846	-0.523460	-0.295196	1.032114	-0.637021	-0.306900	1.033784	-0.579672	-0.235650	0.781911	-0.412185	-0.208250	0.728866	-0.409658	-0.149426	0.754618	-0.403162	-0.169354	0.812809	-0.403944	-0.252220	0.381492	-0.412247	-0.269890	0.343113	-0.420868	-0.211903	0.324640	-0.423743	-0.198669	0.362506	-0.419458	-0.363898	0.168500	-0.472112	-0.258961	0.042966	-0.422654	-0.238679	0.041086	-0.487266	-0.219212	0.028634	-0.479889	-0.198485	0.802429	-0.750005	-0.176295	0.745182	-0.744150	-0.115946	0.764059	-0.728736	-0.130690	0.821831	-0.733483	-0.245382	0.384868	-0.738565	-0.265730	0.349987	-0.736619	-0.208897	0.325526	-0.725498	-0.195242	0.367386	-0.729569	-0.378061	0.157391	-0.693659	-0.262758	0.049847	-0.735263	-0.240460	0.041059	-0.666506	-0.221584	0.029061	-0.671209	
5	0.0250	-0.213710	1.432616	-0.741606	-0.246880	1.413373	-0.402639	-0.169516	1.392447	-0.567001	-0.153954	0.992177	-0.457727	-0.135218	0.992621	-0.683980	-0.207994	1.041120	-0.435919	-0.186400	1.038950	-0.714092	-0.305679	1.023573	-0.524096	-0.296011	1.025828	-0.637726	-0.307449	1.027426	-0.580469	-0.236124	0.775388	-0.413159	-0.208459	0.722474	-0.410554	-0.149787	0.748503	-0.403910	-0.169966	0.806571	-0.404739	-0.252629	0.376361	-0.412656	-0.270737	0.338208	-0.421380	-0.212989	0.319170	-0.424492	-0.199326	0.356828	-0.420227	-0.367695	0.163720	-0.472365	-0.260275	0.040681	-0.422446	-0.239996	0.039543	-0.487645	-0.219937	0.028295	-0.480270	-0.198984	0.795765	-0.750302	-0.176662	0.738571	-0.744358	-0.116355	0.757611	-0.728949	-0.131234	0.815343	-0.733781	-0.245842	0.379731	-0.739044	-0.266621	0.345110	-0.737258	-0.210094	0.319928	-0.726135	-0.195937	0.361631	-0.730099	-0.381667	0.152628	-0.695800	-0.263634	0.047244	-0.735768	-0.242000	0.039685	-0.666611	-0.222523	0.028570	-0.670889	
6	0.0300	-0.213763	1.425985	-0.742008	-0.247610	1.406736	-0.402943	-0.169920	1.385708	-0.567267	-0.155048	0.985894	-0.458062	-0.135932	0.986298	-0.684247	-0.209230	1.034661	-0.436201	-0.186940	1.032462	-0.714584	-0.306810	1.017107	-0.524729	-0.296883	1.019332	-0.638446	-0.307981	1.020873	-0.581351	-0.236588	0.768689	-0.414164	-0.208689	0.715904	-0.411460	-0.150169	0.742178	-0.404605	-0.170582	0.800158	-0.405486	-0.253070	0.371087	-0.413047	-0.271639	0.333179	-0.421892	-0.214157	0.313566	-0.425282	-0.200049	0.351024	-0.421001	-0.371670	0.159056	-0.472457	-0.261378	0.038911	-0.422267	-0.241199	0.038328	-0.487999	-0.220546	0.028033	-0.480659	-0.199512	0.788934	-0.750548	-0.177042	0.731793	-0.744575	-0.116748	0.751000	-0.729274	-0.131776	0.808694	-0.734142	-0.246284	0.374557	-0.739608	-0.267537	0.340236	-0.737981	-0.211373	0.314260	-0.726806	-0.196661	0.355788	-0.730645	-0.385261	0.147978	-0.697839	-0.264744	0.044893	-0.736377	-0.243478	0.038436	-0.666797	-0.223467	0.028172	-0.670712	
7	0.0350	-0.213825	1.419209	-0.742408	-0.248308	1.399961	-0.403251	-0.170310	1.378828	-0.567541	-0.156169	0.979416	-0.458368	-0.136690	0.979809	-0.684546	-0.210470	1.028001	-0.436465	-0.187532	1.025780	-0.715094	-0.308016	1.010429	-0.525360	-0.297824	1.012600	-0.639178	-0.308644	1.014110	-0.582203	-0.237068	0.761836	-0.415205	-0.208952	0.709150	-0.412374	-0.150588	0.735664	-0.405200	-0.171218	0.793572	-0.406166	-0.253541	0.365729	-0.413399	-0.272593	0.328066	-0.422360	-0.215413	0.307851	-0.426114	-0.200820	0.345096	-0.421795	-0.375802	0.154539	-0.472460	-0.262387	0.037627	-0.422071	-0.242274	0.037473	-0.488262	-0.221036	0.027865	-0.480990	-0.200060	0.781917	-0.750733	-0.177422	0.724833	-0.744800	-0.117115	0.744215	-0.729730	-0.132313	0.801865	-0.734575	-0.246678	0.369343	-0.740303	-0.268439	0.335358	-0.738850	-0.212701	0.308525	-0.727529	-0.197386	0.349866	-0.731220	-0.388880	0.143430	-0.699793	-0.266016	0.042826	-0.737061	-0.244796	0.037399	-0.667108	-0.224309	0.027888	-0.670665	
8	0.0400	-0.213889	1.412310	-0.742828	-0.248951	1.393075	-0.403577	-0.170690	1.371827	-0.567818	-0.157301	0.972775	-0.458643	-0.137493	0.973186	-0.684888	-0.211725	1.021151	-0.436709	-0.188195	1.018917	-0.715619	-0.309288	1.003533	-0.525998	-0.298838	1.005637	-0.639913	-0.309448	1.007148	-0.583015	-0.237559	0.754840	-0.416270	-0.209254	0.702257	-0.413258	-0.151052	0.728987	-0.405651	-0.171881	0.786834	-0.406747	-0.253992	0.360374	-0.413659	-0.273579	0.322978	-0.422762	-0.216737	0.302093	-0.426972	-0.201619	0.339130	-0.422580	-0.380024	0.150204	-0.472441	-0.263424	0.036719	-0.421883	-0.243272	0.036938	-0.488441	-0.221443	0.027751	-0.481262	-0.200613	0.774730	-0.750869	-0.177774	0.717710	-0.745042	-0.117435	0.737287	-0.730317	-0.132828	0.794881	-0.735092	-0.246984	0.364106	-0.741173	-0.269273	0.330477	-0.739910	-0.214022	0.302761	-0.728297	-0.198072	0.343897	-0.731823	-0.392521	0.138978	-0.701648	-0.267456	0.041033	-0.737861	-0.245948	0.036589	-0.667475	-0.225039	0.027664	-0.670667	
9	0.0450	-0.213955	1.405320	-0.743280	-0.249540	1.386099	-0.403913	-0.171038	1.364678	-0.568123	-0.158436	0.965990	-0.458876	-0.138340	0.966443	-0.685283	-0.213016	1.014112	-0.436918	-0.188946	1.011883	-0.716162	-0.310622	0.996431	-0.526643	-0.299925	0.998450	-0.640644	-0.310404	1.000001	-0.583784	-0.238061	0.747716	-0.417344	-0.209591	0.695223	-0.414089	-0.151565	0.722160	-0.405938	-0.172567	0.779960	-0.407197	-0.254407	0.355040	-0.413831	-0.274568	0.317964	-0.423069	-0.218107	0.296360	-0.427829	-0.202420	0.333149	-0.423332	-0.384251	0.146022	-0.472442	-0.264561	0.036037	-0.421714	-0.244217	0.036652	-0.488551	-0.221792	0.027679	-0.481480	-0.201157	0.767395	-0.750989	-0.178082	0.710445	-0.745309	-0.117704	0.730245	-0.731020	-0.133323	0.787783	-0.735696	-0.247172	0.358854	-0.742218	-0.269987	0.325574	-0.741154	-0.215270	0.297002	-0.729100	-0.198679	0.337911	-0.732451	-0.396186	0.134569	-0.703445	-0.268998	0.039469	-0.738750	-0.246915	0.036021	-0.667872	-0.225628	0.027496	-0.670687	
10	0.0500	-0.214027	1.398273	-0.743774	-0.250079	1.379068	-0.404247	-0.171336	1.357419	-0.568461	-0.159574	0.959086	-0.459058	-0.139222	0.959603	-0.685742	-0.214346	1.006894	-0.437090	-0.189800	1.004693	-0.716722	-0.312026	0.989122	-0.527286	-0.301086	0.991050	-0.641359	-0.311517	0.992672	-0.584493	-0.238581	0.740499	-0.418405	-0.209962	0.688087	-0.414864	-0.152136	0.715227	-0.406041	-0.173290	0.772978	-0.407497	-0.254745	0.349770	-0.413887	-0.275501	0.313092	-0.423268	-0.219473	0.290689	-0.428643	-0.203184	0.327171	-0.424015	-0.388387	0.141924	-0.472507	-0.265801	0.035476	-0.421570	-0.245110	0.036528	-0.488592	-0.222091	0.027628	-0.481622	-0.201683	0.759941	-0.751130	-0.178343	0.703074	-0.745622	-0.117928	0.723120	-0.731804	-0.133804	0.780596	-0.736365	-0.247215	0.353588	-0.743389	-0.270538	0.320660	-0.742537	-0.216378	0.291270	-0.729931	-0.199164	0.331946	-0.733107	-0.399826	0.130218	-0.705228	-0.270526	0.038083	-0.739690	-0.247726	0.035680	-0.668308	-0.226078	0.027373	-0.670704	
11	0.0550	-0.214108	1.391200	-0.744317	-0.250576	1.372016	-0.404555	-0.171574	1.350093	-0.568831	-0.160709	0.952085	-0.459183	-0.140134	0.952684	-0.686279	-0.215737	0.999506	-0.437240	-0.190766	0.997359	-0.717296	-0.313495	0.981621	-0.527924	-0.302325	0.983455	-0.642048	-0.312797	0.985175	-0.585135	-0.239141	0.733238	-0.419405	-0.210384	0.680890	-0.415566	-0.152768	0.708225	-0.405990	-0.174059	0.765923	-0.407654	-0.255003	0.344626	-0.413865	-0.276363	0.308345	-0.423394	-0.220791	0.285131	-0.429402	-0.203877	0.321280	-0.424640	-0.392362	0.137849	-0.472626	-0.267118	0.034940	-0.421390	-0.245926	0.036511	-0.488551	-0.222311	0.027593	-0.481696	-0.202188	0.752412	-0.751331	-0.178563	0.695632	-0.746001	-0.118128	0.715942	-0.732647	-0.134282	0.773348	-0.737087	-0.247114	0.348312	-0.744629	-0.270910	0.315709	-0.743981	-0.217302	0.285577	-0.730770	-0.199496	0.326017	-0.733793	-0.403373	0.125934	-0.706997	-0.271955	0.036834	-0.740649	-0.248411	0.035529	-0.668768	-0.226398	0.027282	-0.670691	
